# xmcd
#
# Track frame offsets: 
#        150
#        17853
#        35824
#        54201
#        70135
#        89816
#        112470
#        134583
#        156845
#        175043
#        196082
#        218397
#        231149
#        250457
#
# Disc length: 3596 seconds
#
# Revision: 0
# Processed by: cddbd v1.5.2PL0 Copyright (c) Steve Scherf et al.
# Submitted via: ExactAudioCopyFreeDBPlugin 1.0
#
DISCID=ca0e0a0e
DTITLE=群星 - DTS 一人一首成名曲3
DYEAR=2012
DGENRE=Acid
TTITLE0=陈影 - 红豆
TTITLE1=陈宁 - 我可以抱你吗
TTITLE2=晓花 - 吻别
TTITLE3=江智民 - 其实你不懂我的心
TTITLE4=雷婷 - 追梦人
TTITLE5=陶辚竹 - 莫斯科郊外的晚上
TTITLE6=张擎 - 多情总被无情伤
TTITLE7=白晓 - 威尼斯的泪
TTITLE8=苏曼 - 伤情
TTITLE9=周虹 - 一万个理由
TTITLE10=龚玥 - 感恩的心
TTITLE11=周虹 江智民 - 你是我心内的一首歌
TTITLE12=吕晋 - 寂寞的季节
TTITLE13=童丽 - 再回首
EXTD=
EXTT0=
EXTT1=
EXTT2=
EXTT3=
EXTT4=
EXTT5=
EXTT6=
EXTT7=
EXTT8=
EXTT9=
EXTT10=
EXTT11=
EXTT12=
EXTT13=
PLAYORDER=
